<?xml version="1.0" encoding="utf-8"?>
<!-- Generator: Adobe Illustrator 16.0.0, SVG Export Plug-In . SVG Version: 6.00 Build 0)  -->
<!DOCTYPE svg PUBLIC "-//W3C//DTD SVG 1.0//EN" "http://www.w3.org/TR/2001/REC-SVG-20010904/DTD/svg10.dtd">
<svg version="1.0" id="Layer_1" xmlns="http://www.w3.org/2000/svg" xmlns:xlink="http://www.w3.org/1999/xlink" x="0px" y="0px"
	 width="549.5889px" height="127.603px" viewBox="0 0 549.5889 127.603" enable-background="new 0 0 549.5889 127.603"
	 xml:space="preserve">
		<path fill-rule="evenodd" clip-rule="evenodd" fill="#fff" d="M82.624,63.8276c0,13.687,0.001,27.3745-0.001,41.062
			c-0.001,3.9053-1.1377,4.9868-5.0928,4.8223c-9.2432-0.3843-18.4854-0.7666-27.7256-1.1782
			c-2.0371-0.0908-3.2998-1.3755-3.4375-3.2324c-0.084-1.1387,0.1494-1.6846,1.5-1.6094c4.1807,0.2334,8.3691,0.3457,12.5547,0.4775
			c5.3262,0.168,7.7754-2.187,7.7754-7.4653c0.0039-21.937,0.0039-43.874,0-65.811c-0.001-5.1406-2.4658-7.5464-7.6387-7.4746
			c-4.1895,0.0586-8.3799,0.0752-12.5654,0.2163c-1.3574,0.0454-1.7236-0.418-1.6367-1.7007
			c0.1494-2.2183,1.4463-3.4624,4.0039-3.521c5.1865-0.1196,10.374-0.1855,15.5625-0.2847c4-0.0767,8.001-0.189,12.002-0.251
			c3.541-0.0552,4.6963,1.1133,4.6973,4.7007C82.626,36.3276,82.624,50.0776,82.624,63.8276z"/>
		<path fill-rule="evenodd" clip-rule="evenodd" fill="#fff" d="M65.4326,64.082c0,10.8135,0.002,21.6274-0.002,32.4409
			c-0.002,3.9092-1.1436,5.0527-5.0498,4.9229c-6.4355-0.2144-12.8711-0.4634-19.3047-0.7368
			c-3.2061-0.1367-4.8916-2.6436-3.9844-5.7397c0.2393-0.8149,0.8193-0.6289,1.3408-0.6187c1.499,0.0293,2.998,0.1606,4.4941,0.1372
			c4.3789-0.0688,7.21-2.8188,7.2197-7.1641c0.0371-15.814,0.0381-31.6279-0.001-47.4424
			c-0.0098-4.0967-2.6074-6.5967-6.7324-6.6772c-1.6865-0.0327-3.377-0.04-5.0635,0.0269
			c-0.9951,0.0391-1.2461-0.3384-1.2813-1.2988c-0.1602-4.3584,0.8428-5.4678,5.2354-5.5112
			c6.1904-0.061,12.3809-0.1069,18.5723-0.1396c3.4795-0.0181,4.5488,1.0635,4.5527,4.6099
			C65.4385,41.9551,65.4326,53.0186,65.4326,64.082z"/>
		<path fill-rule="evenodd" clip-rule="evenodd" fill="#fff" d="M34.3682,47.4043c-0.9111-2.6719-3.2168-2.9458-5.4639-2.8726
			c-1.8047,0.0586-2.1348-0.6631-1.957-2.1758c0.0869-0.7388,0.001-1.4966,0.0176-2.2451c0.0498-2.1992,1.457-3.9175,3.6416-3.9976
			c4.4297-0.1621,8.8672-0.2046,13.2998-0.1504c2.0625,0.0254,3.3857,1.5483,3.4248,3.7007
			c0.0605,3.2451,0.0234,6.4922,0.0234,9.7383c0,11.9238,0.002,23.8472-0.0039,35.771c0,0.8105-0.0254,1.6221-0.0664,2.4316
			c-0.1387,2.6748-1.6055,4.1426-4.2871,4.0972c-4.0576-0.0688-8.1143-0.2021-12.168-0.3862
			c-2.4072-0.1094-3.8301-1.7153-3.8672-4.1563c-0.001-0.0625-0.001-0.125,0-0.187c0.0293-1.1836-0.3291-2.5923,0.1924-3.4897
			c0.5605-0.9614,2.0732-0.1841,3.1543-0.3857c2.0391-0.3809,3.6396-1.2388,4.1318-3.4487
			C34.376,68.9004,34.5049,58.1519,34.3682,47.4043z"/>
		<path fill-rule="evenodd" clip-rule="evenodd" fill="#fff" d="M86.5352,63.6953c0-11.4336,0.0303-22.8682-0.0361-34.3013
			c-0.0078-1.4941,0.4531-1.9155,1.8818-1.9302c3.8818-0.0396,5.0146,1.0195,5.0146,4.9531c0,20.9937,0.002,41.9868,0,62.98
			c0,3.9399-2.3008,5.7271-6.0781,4.7861c-1.1475-0.2861-0.7627-1.1548-0.7646-1.811c-0.0264-7.8101-0.0176-15.6201-0.0176-23.4302
			C86.5352,71.1929,86.5352,67.4443,86.5352,63.6953z"/>
		<path fill-rule="evenodd" clip-rule="evenodd" fill="#fff" d="M31.9482,63.8057c0,4.6172,0.0107,9.2344-0.0039,13.8521
			c-0.0078,2.3721-0.7764,3.1313-3.1689,3.0811c-2.6201-0.0552-5.2393-0.1909-7.8604-0.2661
			c-1.7813-0.0508-2.5967-0.9644-2.5947-2.7139c0.0059-9.3599,0.001-18.7192,0.0049-28.0791c0-1.7705,0.957-2.6543,2.6689-2.6816
			c2.8721-0.0459,5.7432-0.0225,8.6162-0.0391c1.6445-0.0098,2.3564,0.8018,2.3467,2.4326
			C31.9287,54.1963,31.9473,59.001,31.9482,63.8057z"/>
		<path fill-rule="evenodd" clip-rule="evenodd" fill="#fff" d="M97.0244,63.9053c0-6.9937-0.0029-13.9868,0.001-20.9805
			c0.002-1.9556,0.5547-2.249,2.3037-1.2788c1.0332,0.5737,1.5107,1.4468,1.5107,2.6035c0.002,12.9258,0.002,25.8511,0.0029,38.7769
			c0.001,0.915-0.2666,1.7368-0.9502,2.356c-0.7041,0.6382-1.5859,1.3115-2.4932,0.9624c-0.7803-0.2998-0.3545-1.3286-0.3574-2.021
			C97.0127,77.5176,97.0244,70.7114,97.0244,63.9053z"/>
		<path fill-rule="evenodd" clip-rule="evenodd" fill="#fff" d="M104.1699,63.7739c0-3-0.0059-6,0.0059-8.9995
			c0.002-0.6011-0.1377-1.3638,0.8467-1.3203c0.8428,0.0366,1.1836,0.5469,1.1826,1.3691
			c-0.0078,5.937-0.0088,11.8745,0.001,17.8115c0.001,0.8936-0.3809,1.5088-1.2803,1.5068
			c-1.1436-0.002-0.7305-0.9707-0.7383-1.5557C104.1484,69.6489,104.1699,66.7114,104.1699,63.7739z"/>
            </svg>
