<?xml version="1.0" encoding="utf-8"?>
<!-- Generator: Adobe Illustrator 16.0.0, SVG Export Plug-In . SVG Version: 6.00 Build 0)  -->
<!DOCTYPE svg PUBLIC "-//W3C//DTD SVG 1.0//EN" "http://www.w3.org/TR/2001/REC-SVG-20010904/DTD/svg10.dtd">
<svg version="1.0" id="Layer_1" xmlns="http://www.w3.org/2000/svg" xmlns:xlink="http://www.w3.org/1999/xlink" x="0px" y="0px"
	 width="549.5889px" height="127.603px" viewBox="0 0 549.5889 127.603" enable-background="new 0 0 549.5889 127.603"
	 xml:space="preserve">
<g>
	<g>
		<g>
			<path fill-rule="evenodd" clip-rule="evenodd" fill="#fff" d="M158.3623,21.6162c7.291,0.1523,14.0918,1.7939,19.9492,6.4204
				c1.1357,0.8975,1.707,1.4912,0.3076,2.8164c-2.626,2.4883-5.042,5.2012-7.499,7.8647c-0.7412,0.8052-1.167,0.9927-2.0166,0.0186
				c-4.5723-5.2446-14.6885-6.418-20.5234-2.7158c-4.3271,2.7456-5.833,10.7432,0.1367,14.0728
				c4.1895,2.3364,8.6895,3.7632,13.2178,5.1685c5.8857,1.8271,11.2939,4.3672,15.0537,9.5571
				c1.3467,1.8599,2.2344,3.8916,2.7041,6.1147c2.8047,13.2681-3.9307,24.5508-17,28.0894
				c-9.4043,2.5464-18.5781,1.7036-27.3008-2.814c-2.4072-1.2466-4.3965-3.0518-6.3145-4.9541
				c-0.8271-0.8203-0.7998-1.2954,0.0352-2.0811c2.7305-2.5684,5.418-5.1841,8.0508-7.8525c0.8623-0.8735,1.2402-0.8921,2.042,0.146
				c5.1875,6.7129,15.0439,8.7012,22.0732,4.5493c4.0693-2.4033,5.7256-6.4883,4.4531-10.873
				c-0.6602-2.2705-2.3145-3.6519-4.1953-4.8296c-4.1816-2.6162-8.9072-3.8696-13.541-5.3418
				c-3.1113-0.9878-6.0918-2.252-8.8164-4.0664c-6.6572-4.4331-9.0742-10.7656-8.5127-18.5586
				c0.6904-9.583,7.8086-16.9688,18.4141-19.6177C152.125,21.9688,155.2305,21.6782,158.3623,21.6162z"/>
		</g>
		<g>
			<path fill-rule="evenodd" clip-rule="evenodd" fill="#fff" d="M407.5791,99.7974
				c-6.8662-0.2607-13.2783-1.4336-18.4014-6.4199c-1.1123-1.082-1.4287-1.7749-0.0498-2.9194
				c2.0645-1.7134,4.0098-3.582,5.8955-5.4932c0.9502-0.9624,1.4902-1.0698,2.4902,0.0054
				c3.0566,3.2852,6.7256,5.3901,11.4092,5.0942c2.1504-0.1362,4.2148-0.6108,5.9287-2.0288
				c2.8691-2.376,2.5371-6.1069-0.7295-7.8872c-3.5166-1.9175-7.4785-2.3237-11.2959-3.2173c-3-0.7021-5.8457-1.7183-8.4424-3.4585
				c-6.8047-4.5581-6.2969-15.8203-1.0205-21.1543c4.2891-4.3359,9.7139-5.6968,15.5361-5.939
				c3.9639-0.1646,7.8252,0.4927,11.5479,1.9087c2.6289,0.9995,4.8135,2.603,6.6982,4.6748c0.75,0.8252,0.7568,1.3867-0.1201,2.1455
				c-2.2197,1.9204-4.3955,3.895-6.5215,5.9199c-0.8301,0.79-1.208,0.5645-1.8896-0.2124
				c-3.4785-3.9609-8.7646-5.2188-13.249-3.2578c-2.1611,0.9448-3.1611,2.3721-3.1455,4.4253
				c0.0156,2.0986,1.377,3.0708,3.0869,3.7886c3.3096,1.3901,6.8623,1.8447,10.3066,2.7188
				c3.9805,1.0107,7.79,2.3594,10.6865,5.4746c5.7637,6.2002,4.0547,17.1807-3.3887,21.9312
				C418.1904,98.9097,412.8975,99.5781,407.5791,99.7974z"/>
		</g>
		<g>
			<path fill-rule="evenodd" clip-rule="evenodd" fill="#fff" d="M531.2393,87.3599c0,3.332-0.0215,6.5068,0.0146,9.6807
				c0.0088,0.8506-0.3652,1.23-1.1328,1.4409c-6.1064,1.6797-12.2305,1.9893-18.2422-0.2324
				c-3.6729-1.3569-5.7119-4.3018-6.5889-8.0688c-0.7119-3.0605-0.9053-6.1782-0.9189-9.3032
				c-0.0322-6.8091-0.0459-13.6187,0.0195-20.4268c0.0137-1.4316-0.3232-2.0063-1.8604-1.9209
				c-2.3066,0.1284-4.625-0.0073-6.9355,0.0493c-1.2012,0.0293-1.6748-0.3906-1.6396-1.6309
				c0.0713-2.4966,0.084-4.999-0.0039-7.4946c-0.0488-1.3677,0.374-1.9058,1.7969-1.8472c2.3086,0.0952,4.627-0.0391,6.9365,0.0508
				c1.2979,0.0503,1.7314-0.3579,1.7041-1.6826c-0.0791-3.8086,0.0127-7.6211-0.0518-11.4307
				c-0.0195-1.2295,0.2207-1.79,1.626-1.7456c3.2471,0.1025,6.501,0.082,9.748,0.0073c1.2285-0.0278,1.6309,0.3579,1.6104,1.5903
				c-0.0645,3.8096,0.0293,7.6221-0.0518,11.4307c-0.0293,1.3813,0.373,1.8682,1.7949,1.8335
				c3.5605-0.0864,7.124,0.0073,10.6855-0.0488c1.1113-0.0176,1.5488,0.2793,1.5146,1.4619
				c-0.0771,2.6841-0.0801,5.3735,0.002,8.0571c0.0371,1.2017-0.4258,1.4702-1.5254,1.4531
				c-3.5605-0.0547-7.126,0.0405-10.6855-0.0498c-1.4365-0.0361-1.7959,0.4805-1.7842,1.8423
				c0.0586,6.8081-0.0176,13.6182,0.042,20.4263c0.0557,6.2891,2.2793,8.3032,8.5518,7.8984
				C527.668,88.5835,529.4053,88.1255,531.2393,87.3599z"/>
		</g>
		<g>
			<path fill-rule="evenodd" clip-rule="evenodd" fill="#fff" d="M224.2441,97.5464c-0.3145,0.4971-0.75,0.793-1.3301,0.9531
				c-5.5918,1.5439-11.2041,1.8135-16.8281,0.2314c-4.9814-1.4004-7.3809-4.9971-8.2451-9.8662
				c-0.4277-2.4097-0.5488-4.8364-0.5459-7.2773c0.0078-6.9966-0.0537-13.9941,0.042-20.9897c0.0234-1.6929-0.5-2.1611-2.126-2.0684
				c-2.3047,0.1313-4.625-0.0161-6.9355,0.0532c-1.1641,0.0352-1.5059-0.3945-1.4775-1.5239
				c0.0684-2.6841,0.0645-5.373,0.002-8.0576c-0.000254-1.0859,0.3779-1.4082,1.417-1.3862c2.499,0.0532,5.001-0.0308,7.499,0.0366
				c1.2227,0.0327,1.6279-0.3853,1.6064-1.6206c-0.0684-3.8721,0.0186-7.7466-0.0508-11.6187
				c-0.0215-1.2163,0.3193-1.6382,1.5742-1.6084c3.3115,0.0786,6.625,0.0669,9.9365,0.0044
				c1.0928-0.0205,1.3877,0.3633,1.375,1.4033c-0.0479,3.8101,0.0479,7.623-0.0518,11.4312
				c-0.0391,1.5156,0.3369,2.084,1.9541,2.0259c3.3691-0.1221,6.748-0.04,10.124-0.0347c0.7373,0.0015,1.5264-0.1421,2.0547,0.5952
				c0.3848,3.3047,0.4268,6.6084-0.0195,9.9116c-0.6553,0.4658-1.4072,0.4263-2.1582,0.4248
				c-3.4346-0.0063-6.8682,0.0356-10.3018-0.0234c-1.1855-0.0205-1.6523,0.3086-1.6436,1.5742
				c0.0518,7.1133-0.042,14.2275,0.0518,21.3403c0.0713,5.3418,2.2051,7.2412,7.502,7.3052
				c2.2832,0.0278,4.333-0.9541,6.5488-1.1167C224.6699,90.9443,224.6113,94.2446,224.2441,97.5464z"/>
		</g>
		<g>
			<path fill-rule="evenodd" clip-rule="evenodd" fill="#fff" d="M295.1514,72.7476c0-2.0615,0.0625-4.126-0.0156-6.1846
				c-0.0996-2.5996,0.3555-5.2178-0.25-7.7998c-2.5391-0.4463-5.0996-0.0835-7.6475-0.1978
				c-0.4365-0.0195-0.8779-0.0391-1.3115,0.0034c-0.9717,0.0947-1.3174-0.3052-1.3008-1.2847c0.0479-2.811,0.0527-5.6235,0-8.4341
				c-0.0195-1.0396,0.4443-1.2451,1.3535-1.2314c2.5615,0.0391,5.126-0.0273,7.6875,0.0303c1.127,0.000259,1.5254-0.3418,1.5068-1.502
				c-0.0615-3.8101,0.0293-7.623-0.0508-11.4326c-0.0293-1.3809,0.2227-1.9932,1.8076-1.9238
				c3.1201,0.1357,6.25,0.0986,9.374,0.0117c1.2881-0.0366,1.7305,0.3032,1.6992,1.6509
				c-0.0889,3.8091,0.0371,7.6235-0.0674,11.4321c-0.0371,1.4463,0.4482,1.8047,1.8125,1.7734
				c3.5615-0.0815,7.127,0.019,10.6885-0.0518c1.2354-0.0244,1.6309,0.3784,1.5957,1.6001c-0.0771,2.6221-0.0693,5.249-0.002,7.8716
				c0.0293,1.147-0.3633,1.522-1.5059,1.5044c-3.624-0.0562-7.251,0.0278-10.876-0.0454c-1.2939-0.0264-1.7168,0.3569-1.7051,1.6846
				c0.0615,6.9346,0.0098,13.8706,0.0518,20.8052c0.0059,1.1128,0.1855,2.2446,0.4385,3.3315
				c0.6367,2.7344,2.335,4.1543,5.1523,4.3403c2.4482,0.1621,4.8965,0.0474,7.1787-0.9282c1.2021-0.5142,1.252,0.0366,1.248,0.9385
				c-0.0127,2.6865-0.0361,5.3735,0.0117,8.0596c0.0166,0.9751-0.3418,1.481-1.2842,1.7388
				c-5.9844,1.6362-11.9766,1.8999-17.8994-0.1372c-3.7275-1.2817-5.8252-4.166-6.7988-7.8926
				c-0.5381-2.0586-0.8369-4.1665-0.8516-6.2969c-0.000254-3.811-0.0068-7.6221-0.0068-11.4336
				C295.1729,72.7476,295.1621,72.7476,295.1514,72.7476z"/>
		</g>
		<path fill-rule="evenodd" clip-rule="evenodd" fill="#fff" d="M82.624,63.8276c0,13.687,0.001,27.3745-0.001,41.062
			c-0.001,3.9053-1.1377,4.9868-5.0928,4.8223c-9.2432-0.3843-18.4854-0.7666-27.7256-1.1782
			c-2.0371-0.0908-3.2998-1.3755-3.4375-3.2324c-0.084-1.1387,0.1494-1.6846,1.5-1.6094c4.1807,0.2334,8.3691,0.3457,12.5547,0.4775
			c5.3262,0.168,7.7754-2.187,7.7754-7.4653c0.0039-21.937,0.0039-43.874,0-65.811c-0.001-5.1406-2.4658-7.5464-7.6387-7.4746
			c-4.1895,0.0586-8.3799,0.0752-12.5654,0.2163c-1.3574,0.0454-1.7236-0.418-1.6367-1.7007
			c0.1494-2.2183,1.4463-3.4624,4.0039-3.521c5.1865-0.1196,10.374-0.1855,15.5625-0.2847c4-0.0767,8.001-0.189,12.002-0.251
			c3.541-0.0552,4.6963,1.1133,4.6973,4.7007C82.626,36.3276,82.624,50.0776,82.624,63.8276z"/>
		<path fill-rule="evenodd" clip-rule="evenodd" fill="#fff" d="M65.4326,64.082c0,10.8135,0.002,21.6274-0.002,32.4409
			c-0.002,3.9092-1.1436,5.0527-5.0498,4.9229c-6.4355-0.2144-12.8711-0.4634-19.3047-0.7368
			c-3.2061-0.1367-4.8916-2.6436-3.9844-5.7397c0.2393-0.8149,0.8193-0.6289,1.3408-0.6187c1.499,0.0293,2.998,0.1606,4.4941,0.1372
			c4.3789-0.0688,7.21-2.8188,7.2197-7.1641c0.0371-15.814,0.0381-31.6279-0.001-47.4424
			c-0.0098-4.0967-2.6074-6.5967-6.7324-6.6772c-1.6865-0.0327-3.377-0.04-5.0635,0.0269
			c-0.9951,0.0391-1.2461-0.3384-1.2813-1.2988c-0.1602-4.3584,0.8428-5.4678,5.2354-5.5112
			c6.1904-0.061,12.3809-0.1069,18.5723-0.1396c3.4795-0.0181,4.5488,1.0635,4.5527,4.6099
			C65.4385,41.9551,65.4326,53.0186,65.4326,64.082z"/>
		<path fill-rule="evenodd" clip-rule="evenodd" fill="#fff" d="M34.3682,47.4043c-0.9111-2.6719-3.2168-2.9458-5.4639-2.8726
			c-1.8047,0.0586-2.1348-0.6631-1.957-2.1758c0.0869-0.7388,0.001-1.4966,0.0176-2.2451c0.0498-2.1992,1.457-3.9175,3.6416-3.9976
			c4.4297-0.1621,8.8672-0.2046,13.2998-0.1504c2.0625,0.000254,3.3857,1.5483,3.4248,3.7007
			c0.0605,3.2451,0.0234,6.4922,0.0234,9.7383c0,11.9238,0.002,23.8472-0.0039,35.771c0,0.8105-0.000254,1.6221-0.0664,2.4316
			c-0.1387,2.6748-1.6055,4.1426-4.2871,4.0972c-4.0576-0.0688-8.1143-0.2021-12.168-0.3862
			c-2.4072-0.1094-3.8301-1.7153-3.8672-4.1563c-0.001-0.0625-0.001-0.125,0-0.187c0.0293-1.1836-0.3291-2.5923,0.1924-3.4897
			c0.5605-0.9614,2.0732-0.1841,3.1543-0.3857c2.0391-0.3809,3.6396-1.2388,4.1318-3.4487
			C34.376,68.9004,34.5049,58.1519,34.3682,47.4043z"/>
		<path fill-rule="evenodd" clip-rule="evenodd" fill="#fff" d="M86.5352,63.6953c0-11.4336,0.0303-22.8682-0.0361-34.3013
			c-0.0078-1.4941,0.4531-1.9155,1.8818-1.9302c3.8818-0.0396,5.0146,1.0195,5.0146,4.9531c0,20.9937,0.002,41.9868,0,62.98
			c0,3.9399-2.3008,5.7271-6.0781,4.7861c-1.1475-0.2861-0.7627-1.1548-0.7646-1.811c-0.0264-7.8101-0.0176-15.6201-0.0176-23.4302
			C86.5352,71.1929,86.5352,67.4443,86.5352,63.6953z"/>
		<path fill-rule="evenodd" clip-rule="evenodd" fill="#fff" d="M31.9482,63.8057c0,4.6172,0.0107,9.2344-0.0039,13.8521
			c-0.0078,2.3721-0.7764,3.1313-3.1689,3.0811c-2.6201-0.0552-5.2393-0.1909-7.8604-0.2661
			c-1.7813-0.0508-2.5967-0.9644-2.5947-2.7139c0.0059-9.3599,0.001-18.7192,0.0049-28.0791c0-1.7705,0.957-2.6543,2.6689-2.6816
			c2.8721-0.0459,5.7432-0.0225,8.6162-0.0391c1.6445-0.0098,2.3564,0.8018,2.3467,2.4326
			C31.9287,54.1963,31.9473,59.001,31.9482,63.8057z"/>
		<path fill-rule="evenodd" clip-rule="evenodd" fill="#fff" d="M97.0244,63.9053c0-6.9937-0.0029-13.9868,0.001-20.9805
			c0.002-1.9556,0.5547-2.249,2.3037-1.2788c1.0332,0.5737,1.5107,1.4468,1.5107,2.6035c0.002,12.9258,0.002,25.8511,0.0029,38.7769
			c0.001,0.915-0.2666,1.7368-0.9502,2.356c-0.7041,0.6382-1.5859,1.3115-2.4932,0.9624c-0.7803-0.2998-0.3545-1.3286-0.3574-2.021
			C97.0127,77.5176,97.0244,70.7114,97.0244,63.9053z"/>
		<path fill-rule="evenodd" clip-rule="evenodd" fill="#fff" d="M104.1699,63.7739c0-3-0.0059-6,0.0059-8.9995
			c0.002-0.6011-0.1377-1.3638,0.8467-1.3203c0.8428,0.0366,1.1836,0.5469,1.1826,1.3691
			c-0.0078,5.937-0.0088,11.8745,0.001,17.8115c0.001,0.8936-0.3809,1.5088-1.2803,1.5068
			c-1.1436-0.002-0.7305-0.9707-0.7383-1.5557C104.1484,69.6489,104.1699,66.7114,104.1699,63.7739z"/>
		<g>
			<g>
				<path fill-rule="evenodd" clip-rule="evenodd" fill="#fff" d="M342.498,77.7817c-0.7988,0.4829-0.2549,1.1372-0.1309,1.6504
					c1.3115,5.4248,4.8252,8.6528,10.2285,9.6895c6.084,1.1675,11.2529-0.7349,15.3721-5.3071
					c0.9932-1.1011,1.6113-1.106,2.708-0.2036c2.1201,1.7446,4.3604,3.3428,6.5674,4.98c0.7383,0.5474,1.1758,0.9673,0.3467,1.9009
					c-7.4287,8.3618-16.8145,10.6973-27.3994,8.4946c-10.5215-2.1899-17.6104-8.5415-20.1611-19.0938
					c-2.5664-10.6123-0.1553-20.1611,8.4609-27.2417c8.1328-6.6851,17.6631-8.1606,27.5361-4.5825
					c8.4551,3.064,12.3789,10.0527,14.0254,18.5176c0.626,3.2075,0.6807,6.4561,0.6396,9.7104
					c-0.0059,0.5171-0.0781,0.9912-0.4072,1.4033c-0.3516,0.3838-0.8164,0.2466-1.2373,0.2471
					c-11.8193,0.0068-23.6377,0.0063-35.4561,0.0039C343.2197,77.9502,342.8369,78.0024,342.498,77.7817z M366.3848,67.9106
					c1.041,0.0103,1.4951-0.291,1.3398-1.4038c-0.3545-2.5249-1.0566-4.9038-2.9043-6.7563
					c-4.0264-4.0356-8.9717-4.4175-14.1025-3.0806c-4.8711,1.269-7.2217,4.9995-8.3994,9.6499
					c-0.3428,1.3481,0.1758,1.6113,1.3887,1.5947c3.748-0.0508,7.4971-0.0186,11.2451-0.0186
					C358.7637,67.8955,362.5742,67.8726,366.3848,67.9106z"/>
			</g>
		</g>
		<g>
			<g>
				<path fill-rule="evenodd" clip-rule="evenodd" fill="#fff" d="M449.8164,78.1436
					c0.2666,6.0708,5.8965,11.0483,12.5605,11.2847c5.374,0.1904,9.751-1.7827,13.2598-5.7422
					c0.8447-0.9536,1.3906-1.0508,2.3994-0.2222c2.0723,1.7007,4.2246,3.313,6.4316,4.8345
					c1.251,0.8623,1.4258,1.4282,0.3135,2.6563c-5.7764,6.3735-13.0869,9.103-21.4756,8.7485
					c-10.5273-0.4453-19.084-4.7222-23.8027-14.5518c-4.4512-9.2749-4.0273-18.6426,1.7529-27.2578
					c5.9023-8.7954,14.7549-12.0396,25.0107-11.4316c11.5088,0.6816,19.6318,8.5923,21.4023,20.2393
					c0.4727,3.1045,0.5371,6.2148,0.541,9.3369c0,0.6274,0.041,1.2676-0.582,1.6787c-0.6172,0.4546-1.3281,0.2227-1.9883,0.2236
					c-11.2695,0.0166-22.5391,0.0083-33.8096,0.021C451.1592,77.9619,450.46,77.7837,449.8164,78.1436z M473.8936,67.9214
					c1.2109,0.0215,1.5459-0.4072,1.3945-1.5317c-0.3438-2.5381-1.1289-4.8882-2.9912-6.7183
					c-4.001-3.9297-8.8828-4.3232-13.958-3.0225c-4.8877,1.252-7.2656,4.9673-8.457,9.6055
					c-0.2959,1.1543-0.0713,1.7046,1.3252,1.6719c3.748-0.0884,7.5-0.0303,11.25-0.0303
					C466.2686,67.896,470.083,67.8525,473.8936,67.9214z"/>
			</g>
		</g>
		<g>
			<g>
				<path fill-rule="evenodd" clip-rule="evenodd" fill="#fff" d="M265.1084,91.9355
					c-2.5088,3.6978-5.9434,6.0142-10.2109,7.0688c-5.8809,1.4536-11.6211,1.0044-16.8945-1.9966
					c-10.2832-5.8516-10.2012-20.063,0.0791-25.9492c5.1787-2.9653,10.9434-3.7524,16.7705-4.1182
					c2.9902-0.1875,5.9961-0.2158,8.9922-0.1538c1.4707,0.0303,1.8008-0.5068,1.7227-1.8574
					c-0.2744-4.8301-3.5596-8.1094-9.0928-8.7544c-5.4512-0.6348-10.4404,0.6523-14.7412,4.125
					c-0.9824,0.7925-1.5449,0.894-2.4258-0.0835c-1.4189-1.5767-2.917-3.0972-4.5078-4.5c-1.0586-0.9336-0.8438-1.4829,0.085-2.3149
					c3.1387-2.811,6.7412-4.708,10.8037-5.7617c5.9609-1.5454,11.9688-1.8647,17.959-0.3003
					c7.665,2.0015,11.9961,7.0112,13.1035,14.8398c0.2979,2.1094,0.3965,4.2207,0.3916,6.3486
					c-0.0176,9.3701-0.0381,18.7407,0.0361,28.1108c0.0117,1.4995-0.418,1.9121-1.8789,1.8506
					c-2.6826-0.1138-5.375-0.0918-8.0605-0.0063c-1.2715,0.0405-1.8066-0.2881-1.707-1.6489
					c0.1133-1.5366,0.0264-3.0879,0.0264-4.6328C265.4082,92.1128,265.2588,92.0239,265.1084,91.9355z M259.7139,75.9722
					c-1.0596,0-2.125-0.0723-3.1768,0.0127c-3.8125,0.3081-7.5615,0.8594-10.8506,3.0586
					c-1.7295,1.1567-2.4102,2.8018-2.3223,4.8057c0.1152,2.6299,2.1758,4.8823,5.1572,5.707c2.457,0.6802,4.9238,0.625,7.4131,0.167
					c5.332-0.9805,8.6582-4.6372,8.7988-10.0684c0.124-4.7588,0.7012-3.7207-3.71-3.8296
					c-0.4355-0.0107-0.8721-0.0015-1.3096-0.0015C259.7139,75.873,259.7139,75.9224,259.7139,75.9722z"/>
			</g>
		</g>
	</g>
</g>
</svg>
